<?xml version="1.0" standalone="no"?>
<!DOCTYPE svg PUBLIC "-//W3C//DTD SVG 20010904//EN"
 "http://www.w3.org/TR/2001/REC-SVG-20010904/DTD/svg10.dtd">
<svg version="1.0" xmlns="http://www.w3.org/2000/svg"
 width="800.000000pt" height="800.000000pt" viewBox="0 0 800.000000 800.000000"
 preserveAspectRatio="xMidYMid meet">
<metadata>
Created by potrace 1.14, written by Peter Selinger 2001-2017
</metadata>
<g transform="translate(0.000000,800.000000) scale(0.100000,-0.100000)"
fill="#000000" stroke="none">
<path d="M3789 6626 c-2 -2 -38 -7 -79 -11 -41 -3 -86 -8 -100 -10 -65 -8
-119 -16 -165 -25 -27 -6 -61 -12 -75 -14 -14 -3 -25 -5 -25 -6 0 -1 -12 -3
-26 -5 -14 -2 -45 -9 -70 -15 -24 -7 -52 -14 -62 -16 -10 -2 -27 -6 -37 -9
-10 -3 -27 -8 -37 -10 -10 -2 -37 -10 -61 -19 -23 -8 -43 -15 -45 -15 -3 0
-37 -11 -82 -28 -22 -8 -40 -14 -40 -13 0 1 -13 -3 -28 -9 -16 -6 -31 -11 -33
-11 -3 0 -29 -11 -57 -24 -29 -12 -81 -36 -117 -52 -91 -40 -222 -109 -310
-164 -41 -25 -83 -49 -93 -53 -9 -3 -17 -11 -17 -17 0 -5 -7 -10 -15 -10 -8 0
-15 -4 -15 -10 0 -5 -6 -10 -12 -10 -7 0 -28 -13 -45 -28 -18 -15 -53 -43 -78
-62 -122 -93 -290 -259 -386 -380 -63 -81 -159 -217 -159 -226 0 -3 -8 -18
-19 -32 -31 -44 -119 -226 -156 -321 -35 -90 -71 -204 -107 -341 -20 -75 -24
-91 -33 -132 -9 -42 -29 -133 -30 -138 -1 -3 -5 -30 -10 -60 -5 -30 -9 -57
-10 -60 -7 -32 -21 -142 -31 -255 -7 -71 -7 -399 0 -465 14 -131 29 -223 60
-357 7 -33 58 -188 73 -223 34 -81 118 -248 150 -297 18 -29 30 -53 26 -53
-14 0 -236 111 -268 134 -16 11 -31 20 -32 19 -4 -3 -57 27 -127 72 -34 22
-69 45 -78 50 -107 67 -398 299 -398 317 0 6 -3 8 -7 5 -3 -4 -85 72 -182 169
-96 96 -186 181 -200 188 -37 19 -70 10 -108 -29 -23 -24 -33 -43 -33 -65 0
-34 23 -96 45 -120 7 -8 14 -18 14 -23 2 -23 256 -429 280 -447 4 -3 18 -21
31 -40 40 -57 140 -180 199 -244 56 -61 275 -277 318 -314 31 -27 289 -223
329 -250 140 -95 499 -286 609 -323 22 -8 42 -16 45 -20 3 -3 34 -16 70 -28
36 -13 74 -27 85 -31 68 -29 356 -116 445 -134 14 -3 55 -12 91 -20 36 -8 78
-17 93 -20 14 -3 34 -7 44 -10 9 -3 31 -8 47 -10 29 -3 66 -10 130 -22 33 -6
56 -9 130 -19 28 -3 64 -9 80 -12 17 -3 37 -5 45 -5 8 0 47 -4 85 -9 39 -5
104 -11 145 -14 41 -3 122 -8 180 -12 213 -16 890 -8 1090 12 25 2 74 7 110
10 114 10 220 23 265 31 11 2 42 6 68 9 27 3 52 7 55 9 4 2 29 7 56 10 28 4
82 14 120 22 39 9 82 18 95 20 20 4 56 13 161 38 8 2 29 7 45 11 42 10 248 72
320 96 190 65 594 246 603 270 2 5 12 9 23 9 10 0 19 4 19 9 0 5 8 12 18 15
16 6 163 94 187 113 6 5 24 17 40 27 41 26 226 165 246 185 8 9 35 32 59 51
37 29 283 273 325 320 190 218 374 485 520 754 32 59 36 75 31 111 -8 53 -63
106 -103 99 -7 -1 -19 -2 -26 -3 -8 0 -92 -79 -188 -174 -190 -189 -284 -274
-435 -389 -62 -48 -282 -198 -289 -198 -3 0 -34 -18 -70 -40 -36 -22 -65 -36
-65 -32 0 4 -4 2 -8 -4 -7 -12 -230 -124 -245 -124 -5 0 1 15 12 33 23 35 105
179 107 187 0 3 11 28 24 55 13 28 22 54 21 59 -1 4 3 14 9 21 15 18 79 220
85 265 1 8 7 38 13 65 7 28 14 66 16 85 3 19 6 35 7 35 1 0 3 11 4 25 1 14 5
57 10 95 8 75 14 355 8 367 -2 5 -6 45 -8 90 -2 46 -6 97 -9 113 -2 17 -7 53
-10 80 -4 28 -11 74 -17 102 -6 29 -12 63 -13 75 -6 42 -18 103 -23 118 -3 8
-8 26 -10 40 -5 30 -61 248 -70 270 -3 8 -7 20 -8 26 -14 64 -122 333 -154
383 -8 13 -16 30 -17 38 -2 8 -9 22 -16 31 -8 10 -31 46 -53 82 -21 36 -52 84
-69 106 -17 23 -40 55 -51 70 -72 100 -201 236 -330 348 -44 38 -82 72 -85 75
-3 4 -22 17 -42 31 -21 14 -38 28 -38 33 0 4 -6 7 -14 7 -8 0 -16 3 -18 8 -5
11 -95 72 -107 72 -6 0 -11 4 -11 8 0 5 -19 19 -42 31 -24 13 -70 38 -103 57
-90 51 -264 134 -280 134 -7 0 -16 4 -19 9 -3 4 -34 19 -68 31 -35 13 -74 28
-88 33 -14 6 -27 11 -30 12 -3 1 -52 16 -110 33 -161 50 -277 80 -337 87 -11
2 -30 6 -42 10 -12 3 -38 8 -59 11 -20 2 -48 6 -62 8 -14 2 -47 7 -75 10 -27
4 -66 9 -85 12 -42 6 -515 15 -521 10z"/>
</g>
</svg>
