<svg xmlns="http://www.w3.org/2000/svg" xmlns:xlink="http://www.w3.org/1999/xlink" width="181.273" height="32.957" viewBox="0 0 181.273 32.957">
  <defs>
    <clipPath id="clip-path">
      <rect id="長方形_11" data-name="長方形 11" width="50" height="32.957" fill="none"/>
    </clipPath>
    <clipPath id="clip-path-2">
      <rect id="長方形_8" data-name="長方形 8" width="120" height="23.384" fill="none"/>
    </clipPath>
  </defs>
  <g id="ロゴ" transform="translate(-80 -35)">
    <g id="グループ_27" data-name="グループ 27" transform="translate(80 35)">
      <g id="グループ_26" data-name="グループ 26" clip-path="url(#clip-path)">
        <path id="パス_27" data-name="パス 27" d="M66.252,13.032C63.866,5.346,55.562,2.5,49.907,2.5S35.948,5.346,33.562,13.032s-.53,12.369,1.944,14.843,10.337,3.181,14.4,3.181,11.927-.707,14.4-3.181,4.329-7.156,1.944-14.843" transform="translate(-24.907 -1.919)" fill="#fff"/>
        <path id="パス_28" data-name="パス 28" d="M47.991,29.719a48.793,48.793,0,0,1-7.9-.671c-3.405-.594-5.732-1.5-6.916-2.68-1.959-1.96-4.836-6.569-2.088-15.426C33.424,3.424,41.487,0,47.991,0s14.567,3.424,16.9,10.941c2.749,8.857-.128,13.467-2.088,15.426-1.183,1.184-3.51,2.085-6.915,2.68a48.793,48.793,0,0,1-7.9.671m0-28.556c-6.092,0-13.631,3.168-15.79,10.123-2.568,8.274.025,12.485,1.8,14.26,2.209,2.209,9.577,3.01,13.99,3.01s11.781-.8,13.99-3.01c1.774-1.774,4.367-5.987,1.8-14.26-2.159-6.955-9.7-10.123-15.79-10.123" transform="translate(-22.991)" fill="#1b1d0f"/>
        <path id="パス_29" data-name="パス 29" d="M25,89.883c-12.559,0-18.368-2.308-23.866-8.311-.541-.591-1.423.136-1.041.859C4.586,90.943,12.248,95.39,25,95.39s20.414-4.447,24.907-12.959c.382-.724-.5-1.451-1.041-.859-5.5,6-11.307,8.311-23.866,8.311" transform="translate(0 -62.433)" fill="#889e16"/>
      </g>
    </g>
    <g id="グループ_23" data-name="グループ 23" transform="translate(141.273 40)">
      <g id="グループ_22" data-name="グループ 22" transform="translate(0 0)" clip-path="url(#clip-path-2)">
        <path id="パス_19" data-name="パス 19" d="M0,14.482V4.083H1.964V14.755c0,2.4.219,2.756,1.747,4.775L2.183,20.7C.273,18.384,0,17.538,0,14.482m19.209-6.5V9.731h-4.2V14.37c0,5.948.055,6.985-3.792,10.15L9.74,23.183c3.138-2.865,3.22-3.193,3.22-8.813V9.731H5.675V7.985H12.96V2.5h2.046V7.985Z" transform="translate(0 -1.136)" fill="#1c1d10"/>
        <path id="パス_20" data-name="パス 20" d="M62.1,7.1a6.512,6.512,0,0,1,4.72,1.528c2.129,1.938,1.8,4.629-.381,6.294a5.256,5.256,0,0,1-2.974,1.064c-1.5.055-2.4-.082-4.83-1.555l1.092-1.665c1.747,1.091,2.374,1.283,3.41,1.283a3.453,3.453,0,0,0,2.046-.655,2.05,2.05,0,0,0,.219-3.4,4.963,4.963,0,0,0-3.466-.982c-1.064,0-1.446.055-7.34.655l.9,13.861H53.343L52.524,9.94l-3.874.409V8.522l3.765-.437L52.006,1.4H54.08l.381,6.412c2.183-.218,6.167-.709,7.64-.709" transform="translate(-22.103 -0.636)" fill="#1c1d10"/>
        <path id="パス_21" data-name="パス 21" d="M107.506,23.111c-3.929,0-6.44-1.173-7.34-3.329a3.73,3.73,0,0,1,.136-3.274c.819-1.528,2.483-2.265,5.266-2.319a13.409,13.409,0,0,1,4.284.819,11.061,11.061,0,0,1-1.528-4.693H99.457V8.459h8.7c-.055-.6-.055-1.064-.055-3.219h-8.65V3.3h8.65V0h2.019V3.3h4.693V5.239h-4.693c0,2.237,0,2.7.027,3.219H114.9v1.855h-4.584a8.092,8.092,0,0,0,2.4,5.1h-.028l-1.036,1.61a25.825,25.825,0,0,0-5.949-1.119c-2.074.082-3.11.6-3.547,1.555a1.863,1.863,0,0,0-.109,1.528c.491,1.256,1.746,1.883,3.792,2.129a26.211,26.211,0,0,0,5.785-.136v1.855a25.008,25.008,0,0,1-4.12.273" transform="translate(-45.186 0)" fill="#1c1d10"/>
        <path id="パス_22" data-name="パス 22" d="M154.044,18.545c-.082,3-1.282,4.447-4.174,4.447-2.974,0-5.894-1.773-4.884-4.775.436-1.255,1.8-2.1,3.765-2.346a9.787,9.787,0,0,1,3.3.109V11.205h-6.74V9.35h6.74V5.23h-7.094V3.347h7.094V.1h1.992V3.347H160.4V5.23h-6.358V9.35h5.948v1.855h-5.948v5.348a24.533,24.533,0,0,1,6.74,3.738l-1.2,1.555a23.915,23.915,0,0,0-5.539-3.3m-5.02-.6c-.846.109-1.883.518-2.047,1.282-.273,1.146,1.473,1.828,2.893,1.828,1.992,0,2.21-.982,2.183-2.947a9.166,9.166,0,0,0-3.029-.164" transform="translate(-65.778 -0.045)" fill="#1c1d10"/>
        <path id="パス_23" data-name="パス 23" d="M204.348,12.618a5.3,5.3,0,0,1,2.428,5.32c-.218,2.783-1.91,4.857-4.856,5.948-2.592.955-6.712,1.037-8.568-.873-1.992-1.91-.519-4.775,2.183-4.775A5.716,5.716,0,0,1,200.72,22.3a5.074,5.074,0,0,0,3.956-4.5,3.547,3.547,0,0,0-1.5-3.629c-2.429-1.528-7.34-.491-10.887,1.556l-1.228-1.337,9.6-9.5h-7.8V3.15H203.8V4.623l-8.158,8.022c2.783-1.091,6.412-1.446,8.7-.027m-8.868,7.476c-1.228,0-1.228,1.419-.3,1.964a6.166,6.166,0,0,0,3.52.655c-.572-1.31-1.692-2.619-3.219-2.619" transform="translate(-86.803 -1.431)" fill="#1c1d10"/>
        <path id="パス_24" data-name="パス 24" d="M64.168.771A6.612,6.612,0,0,0,67.432,5.1c1.233.766,3.44,1.1,4.011.184S70.731,2.54,69.5,1.774a6.612,6.612,0,0,0-5.33-1" transform="translate(-29.153 -0.262)" fill="#889e16"/>
      </g>
    </g>
  </g>
</svg>
